<?xml version="1.0"?>
<svg xmlns="http://www.w3.org/2000/svg" height="512px" viewBox="1 -16 511.999 511" width="512px" class=""><g><path d="m67.15625 27.578125c-13.871094 0-25.15625 11.285156-25.15625 25.15625 0 13.867187 11.285156 25.152344 25.152344 25.152344 13.871094 0 25.15625-11.285157 25.15625-25.152344 0-13.871094-11.285156-25.15625-25.152344-25.15625zm0 35.308594c-5.601562 0-10.15625-4.554688-10.15625-10.152344 0-5.601563 4.554688-10.15625 10.152344-10.15625 5.601562 0 10.15625 4.554687 10.15625 10.15625 0 5.597656-4.554688 10.152344-10.152344 10.152344zm0 0" data-original="#000000" class="active-path" data-old_color="#000000" fill="#FF8700"/><path d="m126.914062 27.578125c-13.867187 0-25.152343 11.285156-25.152343 25.15625 0 13.867187 11.285156 25.152344 25.152343 25.152344 13.871094 0 25.15625-11.285157 25.15625-25.152344 0-13.871094-11.285156-25.15625-25.15625-25.15625zm0 35.308594c-5.597656 0-10.152343-4.554688-10.152343-10.152344 0-5.601563 4.554687-10.15625 10.152343-10.15625 5.601563 0 10.15625 4.554687 10.15625 10.15625 0 5.597656-4.554687 10.152344-10.15625 10.152344zm0 0" data-original="#000000" class="active-path" data-old_color="#000000" fill="#FF8700"/><path d="m186.675781 27.578125c-13.871093 0-25.15625 11.285156-25.15625 25.15625 0 13.867187 11.285157 25.152344 25.15625 25.152344 13.867188 0 25.152344-11.285157 25.152344-25.152344 0-13.871094-11.285156-25.15625-25.152344-25.15625zm0 35.308594c-5.601562 0-10.15625-4.554688-10.15625-10.152344 0-5.601563 4.554688-10.15625 10.15625-10.15625 5.597657 0 10.152344 4.554687 10.152344 10.15625 0 5.597656-4.554687 10.152344-10.152344 10.152344zm0 0" data-original="#000000" class="active-path" data-old_color="#000000" fill="#FF8700"/><path d="m459.832031 52.734375c0-4.144531-3.355469-7.5-7.5-7.5h-182.664062c-4.144531 0-7.5 3.355469-7.5 7.5 0 4.140625 3.355469 7.5 7.5 7.5h182.667969c4.140624 0 7.496093-3.359375 7.496093-7.5zm0 0" data-original="#000000" class="active-path" data-old_color="#000000" fill="#FF8700"/><path d="m480.683594.5h-449.367188c-17.292968 0-31.316406 14.074219-31.316406 31.316406v417.25c0 1.890625.167969 3.738282.488281 5.535156.046875.257813.097657.515626.148438.769532.078125.378906.164062.757812.257812 1.136718.058594.25.125.5.191407.75.066406.25.136718.496094.210937.742188 3.855469 12.929688 15.855469 22.382812 30.019531 22.382812h449.367188c17.265625 0 31.316406-14.046874 31.316406-31.316406v-417.25c0-17.246094-14.027344-31.316406-31.316406-31.316406zm-319.164063 464.882812h-130.203125c-7.449218 0-13.75-5.019531-15.695312-11.855468-.039063-.128906-.074219-.257813-.105469-.390625-.035156-.128907-.066406-.257813-.097656-.390625-.273438-1.183594-.417969-2.414063-.417969-3.679688v-344.101562h146.519531zm319.164063 0h-304.164063v-360.417968h170.480469c4.140625 0 7.5-3.359375 7.5-7.5 0-4.144532-3.359375-7.5-7.5-7.5h-332v-58.148438c0-8.976562 7.296875-16.316406 16.316406-16.316406h449.367188c8.957031 0 16.316406 7.28125 16.316406 16.316406v58.148438h-122c-4.140625 0-7.5 3.355468-7.5 7.5 0 4.140625 3.359375 7.5 7.5 7.5h122v344.101562c0 8.996094-7.320312 16.316406-16.316406 16.316406zm0 0" data-original="#000000" class="active-path" data-old_color="#000000" fill="#FF8700"/><path d="m38.761719 146.941406h99c4.140625 0 7.5-3.359375 7.5-7.5s-3.359375-7.5-7.5-7.5h-99c-4.144531 0-7.5 3.359375-7.5 7.5s3.355469 7.5 7.5 7.5zm0 0" data-original="#000000" class="active-path" data-old_color="#000000" fill="#FF8700"/><path d="m38.761719 193.859375h99c4.140625 0 7.5-3.359375 7.5-7.5 0-4.144531-3.359375-7.5-7.5-7.5h-99c-4.144531 0-7.5 3.355469-7.5 7.5 0 4.140625 3.355469 7.5 7.5 7.5zm0 0" data-original="#000000" class="active-path" data-old_color="#000000" fill="#FF8700"/><path d="m38.761719 240.773438h99c4.140625 0 7.5-3.359376 7.5-7.5 0-4.140626-3.359375-7.5-7.5-7.5h-99c-4.144531 0-7.5 3.359374-7.5 7.5 0 4.140624 3.355469 7.5 7.5 7.5zm0 0" data-original="#000000" class="active-path" data-old_color="#000000" fill="#FF8700"/><path d="m38.761719 287.6875h99c4.140625 0 7.5-3.355469 7.5-7.5 0-4.140625-3.359375-7.5-7.5-7.5h-99c-4.144531 0-7.5 3.359375-7.5 7.5 0 4.144531 3.355469 7.5 7.5 7.5zm0 0" data-original="#000000" class="active-path" data-old_color="#000000" fill="#FF8700"/><path d="m207.921875 235.445312h104.15625c8.503906 0 15.421875-6.917968 15.421875-15.421874v-77.960938c0-8.503906-6.917969-15.421875-15.421875-15.421875h-104.15625c-8.503906 0-15.421875 6.917969-15.421875 15.421875v77.960938c0 8.503906 6.917969 15.421874 15.421875 15.421874zm-.421875-93.382812c0-.230469.1875-.421875.421875-.421875h104.15625c.230469 0 .421875.191406.421875.421875v77.960938c0 .230468-.1875.421874-.421875.421874h-104.15625c-.230469 0-.421875-.191406-.421875-.421874zm0 0" data-original="#000000" class="active-path" data-old_color="#000000" fill="#FF8700"/><path d="m362.921875 235.445312h104.15625c8.503906 0 15.421875-6.917968 15.421875-15.421874v-77.960938c0-8.503906-6.917969-15.421875-15.421875-15.421875h-104.15625c-8.503906 0-15.421875 6.917969-15.421875 15.421875v77.960938c0 8.503906 6.917969 15.421874 15.421875 15.421874zm102.761719-93.804687c1 0 1.816406.816406 1.816406 1.816406v75.171875c0 1-.816406 1.816406-1.816406 1.816406h-101.367188c-1 0-1.816406-.816406-1.816406-1.816406v-75.171875c0-1 .816406-1.816406 1.816406-1.816406zm0 0" data-original="#000000" class="active-path" data-old_color="#000000" fill="#FF8700"/><path d="m467.601562 390.210938h-259.679687c-8.503906 0-15.421875 6.917968-15.421875 15.421874v16.953126c0 8.503906 6.917969 15.421874 15.421875 15.421874h259.679687c8.503907 0 15.421876-6.917968 15.421876-15.421874v-16.953126c0-8.503906-6.917969-15.421874-15.421876-15.421874zm.421876 32.375c0 .230468-.1875.421874-.421876.421874h-259.679687c-.234375 0-.421875-.1875-.421875-.421874v-16.953126c0-.234374.1875-.421874.421875-.421874h259.679687c.230469 0 .421876.1875.421876.421874zm0 0" data-original="#000000" class="active-path" data-old_color="#000000" fill="#FF8700"/><path d="m207.921875 369.429688h38.078125c4.140625 0 7.5-3.355469 7.5-7.5 0-4.140626-3.359375-7.5-7.5-7.5h-38.078125c-.230469 0-.421875-.1875-.421875-.421876v-86.15625c0-.230468.1875-.421874.421875-.421874h259.15625c.230469 0 .421875.191406.421875.421874v86.15625c0 .234376-.1875.421876-.421875.421876h-193.078125c-4.140625 0-7.5 3.359374-7.5 7.5 0 4.144531 3.359375 7.5 7.5 7.5h193.078125c8.503906 0 15.421875-6.917969 15.421875-15.421876v-86.15625c0-8.503906-6.917969-15.421874-15.421875-15.421874h-259.15625c-8.503906 0-15.421875 6.917968-15.421875 15.421874v86.15625c0 8.503907 6.917969 15.421876 15.421875 15.421876zm0 0" data-original="#000000" class="active-path" data-old_color="#000000" fill="#FF8700"/></g> </svg>
