<svg height="512pt" viewBox="0 0 512 512" width="512pt" xmlns="http://www.w3.org/2000/svg"><path d="m386 53c0 5.523438-4.476562 10-10 10s-10-4.476562-10-10 4.476562-10 10-10 10 4.476562 10 10zm0 0"/><path d="m96 106c-5.523438 0-10 4.476562-10 10v60c0 5.523438 4.476562 10 10 10 138.171875 0 250 111.804688 250 250 0 5.523438 4.476562 10 10 10h60c5.523438 0 10-4.476562 10-10 0-182.367188-147.601562-330-330-330zm269.820312 320c-5.085937-140.671875-118.074218-254.695312-259.820312-259.820312v-40.023438c163.410156 5.144531 294.707031 136.585938 299.84375 299.84375zm0 0"/><path d="m462 0h-412c-27.570312 0-50 22.429688-50 50v412c0 27.570312 22.429688 50 50 50h412c27.570312 0 50-22.429688 50-50v-412c0-27.570312-22.429688-50-50-50zm30 462c0 16.542969-13.457031 30-30 30h-412c-16.542969 0-30-13.457031-30-30v-412c0-16.542969 13.457031-30 30-30h412c16.542969 0 30 13.457031 30 30zm0 0"/><path d="m136 63h200c5.523438 0 10-4.476562 10-10s-4.476562-10-10-10h-200c-5.523438 0-10 4.476562-10 10s4.476562 10 10 10zm0 0"/><path d="m96 226c-5.523438 0-10 4.476562-10 10v60c0 5.523438 4.476562 10 10 10 71.863281 0 130 58.148438 130 130 0 5.523438 4.476562 10 10 10h60c5.523438 0 10-4.476562 10-10 0-115.792969-94.207031-210-210-210zm149.675781 200c-4.898437-74.839844-64.714843-134.773438-139.675781-139.675781v-40.0625c96.816406 5.046875 174.691406 82.921875 179.738281 179.738281zm0 0"/><path d="m136 346c-27.570312 0-50 22.429688-50 50s22.429688 50 50 50 50-22.429688 50-50-22.429688-50-50-50zm0 80c-16.542969 0-30-13.457031-30-30s13.457031-30 30-30 30 13.457031 30 30-13.457031 30-30 30zm0 0"/></svg>