<?xml version="1.0"?>
<svg xmlns="http://www.w3.org/2000/svg" id="Layer_1" enable-background="new 0 0 512 512" height="128px" viewBox="0 0 512 512" width="128px"><g><path d="m288.134 337.4h-192.8c-8.284 0-15 6.716-15 15s6.716 15 15 15h192.8c8.284 0 15-6.716 15-15s-6.716-15-15-15z" data-original="#000000" class="active-path" data-old_color="#000000" fill="#FF8700"/><path d="m352.4 208.866h-64.267c-8.284 0-15 6.716-15 15s6.716 15 15 15h64.267c8.284 0 15-6.716 15-15s-6.715-15-15-15z" data-original="#000000" class="active-path" data-old_color="#000000" fill="#FF8700"/><path d="m352.4 80.333h-64.267c-8.284 0-15 6.716-15 15s6.716 15 15 15h64.267c8.284 0 15-6.716 15-15s-6.715-15-15-15z" data-original="#000000" class="active-path" data-old_color="#000000" fill="#FF8700"/><path d="m352.4 273.134h-257.067c-8.284 0-15 6.716-15 15s6.716 15 15 15h257.067c8.284 0 15-6.716 15-15s-6.715-15-15-15z" data-original="#000000" class="active-path" data-old_color="#000000" fill="#FF8700"/><path d="m352.4 144.6h-64.267c-8.284 0-15 6.716-15 15s6.716 15 15 15h64.267c8.284 0 15-6.716 15-15s-6.715-15-15-15z" data-original="#000000" class="active-path" data-old_color="#000000" fill="#FF8700"/><path d="m497 64.267h-49.267v-49.267c0-8.284-6.716-15-15-15h-417.733c-8.284 0-15 6.716-15 15v417.733c0 8.284 6.716 15 15 15h49.267v49.267c0 8.284 6.716 15 15 15h417.733c8.284 0 15-6.716 15-15v-417.733c0-8.285-6.716-15-15-15zm-467 353.466v-387.733h387.733v387.733zm452 64.267h-387.733v-34.267h338.467c8.284 0 15-6.716 15-15v-338.466h34.266z" data-original="#000000" class="active-path" data-old_color="#000000" fill="#FF8700"/><circle cx="95.333" cy="223.867" r="15" data-original="#000000" class="active-path" data-old_color="#000000" fill="#FF8700"/><path d="m95.333 174.6c26.551 0 49.267 21.357 49.267 49.267 0 8.284 6.716 14.992 15 14.992s15-6.724 15-15.008c0-44.786-36.494-79.251-79.267-79.251-8.284 0-15 6.716-15 15s6.716 15 15 15z" data-original="#000000" class="active-path" data-old_color="#000000" fill="#FF8700"/><path d="m95.333 110.333c62.603 0 113.533 50.924 113.533 113.533 0 8.284 6.716 14.992 15 14.992s15-6.724 15-15.008c0-79.136-64.389-143.518-143.533-143.518-8.284 0-15 6.716-15 15s6.716 15.001 15 15.001z" data-original="#000000" class="active-path" data-old_color="#000000" fill="#FF8700"/></g> </svg>
